<?xml version="1.0" encoding="UTF-8" standalone="no"?>
<!-- Created with Inkscape (http://www.inkscape.org/) -->

<svg
   xmlns:dc="http://purl.org/dc/elements/1.1/"
   xmlns:cc="http://creativecommons.org/ns#"
   xmlns:rdf="http://www.w3.org/1999/02/22-rdf-syntax-ns#"
   xmlns:svg="http://www.w3.org/2000/svg"
   xmlns="http://www.w3.org/2000/svg"
   xmlns:sodipodi="http://sodipodi.sourceforge.net/DTD/sodipodi-0.dtd"
   xmlns:inkscape="http://www.inkscape.org/namespaces/inkscape"
   version="1.1"
   width="1280"
   height="960"
   id="svg2"
   xml:space="preserve"
   inkscape:version="0.48.2 r9819"
   sodipodi:docname="AXP-Logo_SVG_Normal.svg"><sodipodi:namedview
     pagecolor="#ffffff"
     bordercolor="#666666"
     borderopacity="1"
     objecttolerance="10"
     gridtolerance="10"
     guidetolerance="10"
     inkscape:pageopacity="0"
     inkscape:pageshadow="2"
     inkscape:window-width="1920"
     inkscape:window-height="1018"
     id="namedview18"
     showgrid="false"
     inkscape:zoom="0.98333333"
     inkscape:cx="605.89474"
     inkscape:cy="479.59656"
     inkscape:window-x="-8"
     inkscape:window-y="-8"
     inkscape:window-maximized="1"
     inkscape:current-layer="svg2" /><metadata
     id="metadata8"><rdf:RDF><cc:Work
         rdf:about=""><dc:format>image/svg+xml</dc:format><dc:type
           rdf:resource="http://purl.org/dc/dcmitype/StillImage" /><dc:title></dc:title></cc:Work></rdf:RDF></metadata><defs
     id="defs6"><clipPath
   id="clipPath16"><path
     d="M 0,768 1024,768 1024,0 0,0 0,768 z"
     id="path18" /></clipPath>





</defs><g
     id="g3794"
     transform="matrix(0.37881284,0,0,-0.37881284,36.308041,554.10995)"><path
       inkscape:connector-curvature="0"
       style="fill:#0f4c7b;fill-opacity:1;fill-rule:nonzero;stroke:none"
       id="path22"
       d="m 87.7139,334.917 c -18.416,-3.519 -37.366,-6.203 -56.799,-8.358 l 0,-36.471 c 0,-1.692 1.348,-3.04 3.039,-3.04 l 50.72,0 c 1.691,0 3.04,1.348 3.04,3.04 l 0,44.829 z m -53.76,262.527 c -1.691,0 -3.039,-1.348 -3.039,-3.038 l 0,-257.59 c 19.099,3.44 38.107,7.999 56.799,13.677 l 0,243.913 c 0,1.69 -1.349,3.038 -3.04,3.038 l -50.72,0 z" /><path
       inkscape:connector-curvature="0"
       style="fill:#0f4c7b;fill-opacity:1;fill-rule:nonzero;stroke:none"
       id="path26"
       d="m 166.1914,354.6738 c -18.16,-5.592 -37.176,-10.637 -56.797,-15.008 l 0,-49.578 c 0,-1.692 1.348,-3.04 3.039,-3.04 l 50.719,0 c 1.69,0 3.039,1.348 3.039,3.04 l 0,64.586 z m -53.758,242.77 c -1.691,0 -3.039,-1.348 -3.039,-3.038 l 0,-236.882 c 19.575,6.786 38.529,14.59 56.797,22.796 l 0,214.086 c 0,1.69 -1.349,3.038 -3.039,3.038 l -50.719,0 z" /><path
       inkscape:connector-curvature="0"
       style="fill:#0f4c7b;fill-opacity:1;fill-rule:nonzero;stroke:none"
       id="path30"
       d="m 244.9072,383.9292 c -17.82,-7.909 -36.696,-15.333 -56.799,-22.227 l 0,-71.614 c 0,-1.693 1.348,-3.04 3.039,-3.04 l 50.72,0 c 1.691,0 3.04,1.347 3.04,3.04 l 0,93.841 z m -53.76,213.515 c -1.691,0 -3.039,-1.348 -3.039,-3.038 l 0,-203.83 c 20.37,9.912 39.45,20.244 56.799,30.395 l 0,173.435 c 0,1.69 -1.349,3.038 -3.04,3.038 l -50.72,0 z" /><path
       inkscape:connector-curvature="0"
       style="fill:#0f4c7b;fill-opacity:1;fill-rule:nonzero;stroke:none"
       id="path34"
       d="m 323.4204,425.9097 c -16.757,-10.748 -35.769,-21.449 -56.797,-31.723 l 0,-104.099 c 0,-1.692 1.348,-3.04 3.041,-3.04 l 50.716,0 c 1.692,0 3.04,1.348 3.04,3.04 l 0,135.822 z m -53.756,171.534 c -1.693,0 -3.041,-1.347 -3.041,-3.038 l 0,-160.329 c 24.369,15.269 43.768,29.253 56.797,39.702 l 0,120.627 c 0,1.691 -1.348,3.038 -3.04,3.038 l -50.716,0 z" /><path
       inkscape:connector-curvature="0"
       style="fill:#0f4c7b;fill-opacity:1;fill-rule:nonzero;stroke:none"
       id="path38"
       d="m 402.2554,487.4556 c -16.798,-15.769 -36.143,-31.876 -56.798,-46.918 l 0,-150.45 c 0,-1.692 1.349,-3.04 3.04,-3.04 l 50.721,0 c 1.69,0 3.037,1.348 3.037,3.04 l 0,197.368 z m -53.758,109.988 c -1.691,0 -3.04,-1.347 -3.04,-3.038 l 0,-100.681 c 27.66,28.23 45.304,51.511 56.798,69.526 l 0,31.155 c 0,1.691 -1.347,3.038 -3.037,3.038 l -50.721,0 z" /></g><text
     id="text40"
     x="224.29605"
     y="445.13501"
     style="font-size:5.29537678px"><tspan
       style="font-size:113.01058197px;font-variant:normal;font-weight:normal;font-stretch:normal;writing-mode:lr-tb;fill:#000000;fill-opacity:1;fill-rule:nonzero;stroke:none;font-family:Athena Unicode;-inkscape-font-specification:AthenaUnicode"
       id="tspan42"
       y="445.13501"
       x="224.29605 303.40344 390.87363">AXP</tspan></text>
<text
     id="text44"
     transform="scale(1.0099505,0.99014753)"
     x="480.11157"
     y="448.00269"
     style="font-size:10.14035892px"><tspan
       style="font-size:111.4772644px;font-variant:normal;font-weight:normal;font-stretch:normal;writing-mode:lr-tb;fill:#000000;fill-opacity:1;fill-rule:nonzero;stroke:none;font-family:Athena Unicode;-inkscape-font-specification:AthenaUnicode"
       id="tspan46"
       y="448.00269"
       x="480.11157 562.15863 655.79956 741.30261 803.61835 891.46295 960.69061 1040.3972 1081.7551 1167.2583">CONSULTING</tspan></text>
</svg>