<?xml version="1.0"?>
<svg width="425.4666666666668" height="330" xmlns="http://www.w3.org/2000/svg" xmlns:svg="http://www.w3.org/2000/svg" xmlns:html="http://www.w3.org/1999/xhtml">
 <STYLE xmlns="http://www.w3.org/1999/xhtml"/>

 <g>
  <title>Layer 1</title>
  <g id="svg_4" transform="matrix(1,0,0,1,20,150) ">
   <g id="svg_5">
    <g id="svg_6" transform="translate(0,0) scale(3.799999952316284,1) ">
     <g id="svg_7">
      <g id="svg_8" transform="scale(0.2631579041481018,1) ">
       <path id="svg_9" d="m50,0l280,0c27.61424,0 50,22.38576 50,50c0,27.61424 -22.38576,50 -50,50l-280,0c-27.61424,0 -50,-22.38576 -50,-50c0,-27.61424 22.38576,-50 50,-50z" fill="#6d9eeb"/>
       <path id="svg_10" stroke-width="2" stroke-miterlimit="10" d="m50,0m0,0l280,0c27.61424,0 50,22.38576 50,50c0,27.61424 -22.38576,50 -50,50l-280,0c-27.61424,0 -50,-22.38576 -50,-50c0,-27.61424 22.38576,-50 50,-50z" stroke="#333333" fill="none"/>
      </g>
     </g>
    </g>
   </g>
  </g>
  <g id="svg_11" transform="matrix(1,0,0,1,31,224) ">
   <g id="svg_12" transform="translate(-352,0) ">
    <g id="svg_13">
     <rect id="svg_14" fill-opacity="0" height="18" width="360" y="0" x="352" fill="rgb(0,0,0)"/>
    </g>
   </g>
   <g id="svg_15" transform="translate(-352,0) ">
    <g id="svg_16">
     <rect id="svg_17" fill-opacity="0" height="18" width="360" y="0" x="352" fill="rgb(0,0,0)"/>
    </g>
   </g>
   <g id="svg_18" transform="translate(-352,0) ">
    <g id="svg_19">
     <rect id="svg_20" fill-opacity="0" height="17" width="176" y="0" x="444" fill="rgb(0,0,0)"/>
    </g>
   </g>
   <g id="svg_21" transform="translate(-352,0) ">
    <g id="svg_22">
     <rect id="svg_23" fill-opacity="0" height="17" width="76" y="0" x="444" fill="rgb(0,0,0)"/>
    </g>
    <text id="svg_24" y="14" x="444" font-weight="bold" font-style="normal" font-size="16px" font-family="Arial" fill="rgb(0, 0, 0)">Operating</text>
   </g>
   <g id="svg_25" transform="translate(-352,0) ">
    <g id="svg_26">
     <rect id="svg_27" fill-opacity="0" height="17" width="100" y="0" x="520" fill="rgb(0,0,0)"/>
    </g>
    <text id="svg_28" y="14" x="524" font-weight="bold" font-style="normal" font-size="16px" font-family="Arial" fill="rgb(0, 0, 0)">System</text>
    <text id="svg_29" y="14" x="587" font-weight="bold" font-style="normal" font-size="16px" font-family="Arial" fill="rgb(0, 0, 0)">(</text>
    <text id="svg_30" y="14" x="591" font-weight="bold" font-style="normal" font-size="16px" font-family="Arial" fill="rgb(0, 0, 0)">OS</text>
    <text id="svg_31" y="14" x="614" font-weight="bold" font-style="normal" font-size="16px" font-family="Arial" fill="rgb(0, 0, 0)">)</text>
   </g>
  </g>
  <g id="svg_32" transform="matrix(1,0,0,1,180,10) ">
   <g id="svg_33">
    <g id="svg_34" transform="translate(0,0) scale(0.8500000238418579,2.0999999046325684) ">
     <g id="svg_35">
      <path id="svg_36" d="m0,0l100,0q0,0 0,0l0,100q0,0 0,0l-100,0q0,0 0,0l0,-100q0,0 0,0z" fill="#cfe2f3"/>
      <g id="svg_37" transform="scale(1.1764706373214722,0.4761904776096344) ">
       <path id="svg_38" d="m0,0l85,0q0,0 0,0l0,210q0,0 0,0l-85,0q0,0 0,0l0,-210q0,0 0,0z" fill="none"/>
       <path id="svg_39" stroke-width="2" stroke-miterlimit="10" d="m0,0m0,0l85,0q0,0 0,0l0,210q0,0 0,0l-85,0q0,0 0,0l0,-210q0,0 0,0z" stroke="#333333" fill="none"/>
      </g>
     </g>
    </g>
   </g>
  </g>
  <g id="svg_40" transform="matrix(1,0,0,1,190,18) ">
   <g id="svg_41" transform="translate(-66,0) ">
    <g id="svg_42">
     <rect id="svg_43" fill-opacity="0" height="14" width="67" y="0" x="66" fill="rgb(0,0,0)"/>
    </g>
   </g>
   <g id="svg_44" transform="translate(-66,0) ">
    <g id="svg_45">
     <rect id="svg_46" fill-opacity="0" height="14" width="67" y="0" x="66" fill="rgb(0,0,0)"/>
    </g>
   </g>
   <g id="svg_47" transform="translate(-66,0) ">
    <g id="svg_48">
     <rect id="svg_49" fill-opacity="0" height="14" width="54" y="0" x="72" fill="rgb(0,0,0)"/>
    </g>
    <text id="svg_50" y="11" x="72" font-weight="normal" font-style="normal" font-size="12px" font-family="Arial" fill="rgb(0, 0, 0)">Container</text>
   </g>
   <g id="svg_51" transform="translate(-66,0) ">
    <g id="svg_52"/>
   </g>
   <g id="svg_53" transform="translate(-66,0) ">
    <g id="svg_54"/>
   </g>
  </g>
  <g id="svg_55" transform="matrix(1,0,0,1,20,260) ">
   <g id="svg_56">
    <g id="svg_57" transform="translate(0,0) scale(3.799999952316284,0.5) ">
     <g id="svg_58">
      <g id="svg_59" transform="scale(0.2631579041481018,2) ">
       <path id="svg_60" d="m25,0l330,0c13.80712,0 25,11.19288 25,25c0,13.80712 -11.19288,25 -25,25l-330,0c-13.80712,0 -25,-11.19288 -25,-25c0,-13.80712 11.19288,-25 25,-25z" fill="#b7b7b7"/>
       <path id="svg_61" stroke-width="2" stroke-miterlimit="10" d="m25,0m0,0l330,0c13.80712,0 25,11.19288 25,25c0,13.80712 -11.19288,25 -25,25l-330,0c-13.80712,0 -25,-11.19288 -25,-25c0,-13.80712 11.19288,-25 25,-25z" stroke="#333333" fill="none"/>
      </g>
     </g>
    </g>
   </g>
  </g>
  <g id="svg_62" transform="matrix(1,0,0,1,31,276) ">
   <g id="svg_63" transform="translate(-288,0) ">
    <g id="svg_64">
     <rect id="svg_65" fill-opacity="0" height="18" width="360" y="0" x="288" fill="rgb(0,0,0)"/>
    </g>
   </g>
   <g id="svg_66" transform="translate(-288,0) ">
    <g id="svg_67">
     <rect id="svg_68" fill-opacity="0" height="18" width="360" y="0" x="288" fill="rgb(0,0,0)"/>
    </g>
   </g>
   <g id="svg_69" transform="translate(-288,0) ">
    <g id="svg_70">
     <rect id="svg_71" fill-opacity="0" height="17" width="72" y="0" x="432" fill="rgb(0,0,0)"/>
    </g>
   </g>
   <g id="svg_72" transform="translate(-288,0) ">
    <g id="svg_73">
     <rect id="svg_74" fill-opacity="0" height="17" width="72" y="0" x="432" fill="rgb(0,0,0)"/>
    </g>
    <text id="svg_75" y="14" x="432" font-weight="bold" font-style="normal" font-size="16px" font-family="Arial" fill="rgb(0, 0, 0)">Hardware</text>
   </g>
  </g>
  <g id="svg_76" transform="matrix(1,0,0,1,80,10) ">
   <g id="svg_77">
    <g id="svg_78" transform="translate(0,0) scale(0.8500000238418579,2.0999999046325684) ">
     <g id="svg_79">
      <path id="svg_80" d="m0,0l100,0q0,0 0,0l0,100q0,0 0,0l-100,0q0,0 0,0l0,-100q0,0 0,0z" fill="#cfe2f3"/>
      <g id="svg_81" transform="scale(1.1764706373214722,0.4761904776096344) ">
       <path id="svg_82" d="m0,0l85,0q0,0 0,0l0,210q0,0 0,0l-85,0q0,0 0,0l0,-210q0,0 0,0z" fill="none"/>
       <path id="svg_83" stroke-width="2" stroke-miterlimit="10" d="m0,0m0,0l85,0q0,0 0,0l0,210q0,0 0,0l-85,0q0,0 0,0l0,-210q0,0 0,0z" stroke="#333333" fill="none"/>
      </g>
     </g>
    </g>
   </g>
  </g>
  <g id="svg_84" transform="matrix(1,0,0,1,90,18) ">
   <g id="svg_85" transform="translate(-66,0) ">
    <g id="svg_86">
     <rect id="svg_87" fill-opacity="0" height="14" width="67" y="0" x="66" fill="rgb(0,0,0)"/>
    </g>
   </g>
   <g id="svg_88" transform="translate(-66,0) ">
    <g id="svg_89">
     <rect id="svg_90" fill-opacity="0" height="14" width="67" y="0" x="66" fill="rgb(0,0,0)"/>
    </g>
   </g>
   <g id="svg_91" transform="translate(-66,0) ">
    <g id="svg_92">
     <rect id="svg_93" fill-opacity="0" height="14" width="54" y="0" x="72" fill="rgb(0,0,0)"/>
    </g>
    <text id="svg_94" y="11" x="72" font-weight="normal" font-style="normal" font-size="12px" font-family="Arial" fill="rgb(0, 0, 0)">Container</text>
   </g>
   <g id="svg_95" transform="translate(-66,0) ">
    <g id="svg_96"/>
   </g>
   <g id="svg_97" transform="translate(-66,0) ">
    <g id="svg_98"/>
   </g>
  </g>
  <g id="svg_99" transform="matrix(1,0,0,1,90,40.00000000000003) ">
   <g id="svg_100">
    <g id="svg_101" transform="translate(0,0) scale(0.6200000047683716,0.5) ">
     <g id="svg_102">
      <g id="svg_103" transform="scale(1.6129032373428345,2) ">
       <path id="svg_104" d="m25,0l12,0c13.80712,0 25,11.19288 25,25c0,13.80712 -11.19288,25 -25,25l-12,0c-13.80712,0 -25,-11.19288 -25,-25c0,-13.80712 11.19288,-25 25,-25z" fill="#e69138"/>
       <path id="svg_105" stroke-width="2" stroke-miterlimit="10" d="m25,0m0,0l12,0c13.80712,0 25,11.19288 25,25c0,13.80712 -11.19288,25 -25,25l-12,0c-13.80712,0 -25,-11.19288 -25,-25c0,-13.80712 11.19288,-25 25,-25z" stroke="#333333" fill="none"/>
      </g>
     </g>
    </g>
   </g>
  </g>
  <g id="svg_106" transform="matrix(1,0,0,1,98,58) ">
   <g id="svg_107" transform="translate(-24,0) ">
    <g id="svg_108">
     <rect id="svg_109" fill-opacity="0" height="14" width="46" y="0" x="24" fill="rgb(0,0,0)"/>
    </g>
   </g>
   <g id="svg_110" transform="translate(-24,0) ">
    <g id="svg_111">
     <rect id="svg_112" fill-opacity="0" height="14" width="46" y="0" x="24" fill="rgb(0,0,0)"/>
    </g>
   </g>
   <g id="svg_113" transform="translate(-24,0) ">
    <g id="svg_114">
     <rect id="svg_115" fill-opacity="0" height="14" width="22" y="0" x="36" fill="rgb(0,0,0)"/>
    </g>
   </g>
   <g id="svg_116" transform="translate(-24,0) ">
    <g id="svg_117">
     <rect id="svg_118" fill-opacity="0" height="14" width="22" y="0" x="36" fill="rgb(0,0,0)"/>
    </g>
    <text id="svg_119" y="11" x="36" font-weight="normal" font-style="normal" font-size="12px" font-family="Arial" fill="rgb(0, 0, 0)">App</text>
   </g>
  </g>
  <g id="svg_120" transform="matrix(-1.8369701987210297e-16,-1,1,-1.8369701987210297e-16,24.999999999999993,140) ">
   <g id="svg_121">
    <g id="svg_122" transform="translate(0,0) scale(1.100000023841858,0.5) ">
     <g id="svg_123">
      <g id="svg_124" transform="scale(0.9090909361839294,2) ">
       <path id="svg_125" d="m25,0l60,0c13.80712,0 25,11.19288 25,25c0,13.80712 -11.19288,25 -25,25l-60,0c-13.80712,0 -25,-11.19288 -25,-25c0,-13.80712 11.19288,-25 25,-25z" fill="#f1c232"/>
       <path id="svg_126" stroke-width="2" stroke-miterlimit="10" d="m25,0m0,0l60,0c13.80712,0 25,11.19288 25,25c0,13.80712 -11.19288,25 -25,25l-60,0c-13.80712,0 -25,-11.19288 -25,-25c0,-13.80712 11.19288,-25 25,-25z" stroke="#333333" fill="none"/>
      </g>
     </g>
    </g>
   </g>
  </g>
  <g id="svg_127" transform="matrix(-1.8369701987210297e-16,-1,1,-1.8369701987210297e-16,41,130) ">
   <g id="svg_128" transform="translate(-118,0) ">
    <g id="svg_129">
     <rect id="svg_130" fill-opacity="0" height="18" width="91" y="0" x="118" fill="rgb(0,0,0)"/>
    </g>
   </g>
   <g id="svg_131" transform="translate(-118,0) ">
    <g id="svg_132">
     <rect id="svg_133" fill-opacity="0" height="18" width="91" y="0" x="118" fill="rgb(0,0,0)"/>
    </g>
   </g>
   <g id="svg_134" transform="translate(-118,0) ">
    <g id="svg_135">
     <rect id="svg_136" fill-opacity="0" height="14" width="59" y="0" x="134" fill="rgb(0,0,0)"/>
    </g>
   </g>
   <g id="svg_137" transform="translate(-118,0) ">
    <g id="svg_138">
     <rect id="svg_139" fill-opacity="0" height="14" width="59" y="0" x="134" fill="rgb(0,0,0)"/>
    </g>
   </g>
   <g id="svg_140" transform="translate(-118,0) ">
    <g id="svg_141">
     <rect id="svg_142" fill-opacity="0" height="17" width="54" y="0" x="134" fill="rgb(0,0,0)"/>
    </g>
    <text id="svg_143" y="14" x="134" font-weight="bold" font-style="normal" font-size="16px" font-family="Arial" fill="rgb(0, 0, 0)">Docker</text>
   </g>
   <g id="svg_144" transform="translate(-118,0) ">
    <g id="svg_145">
     <rect id="svg_146" fill-opacity="0" height="17" width="5" y="0" x="188" fill="rgb(0,0,0)"/>
    </g>
   </g>
  </g>
  <g id="svg_147" transform="matrix(1,0,0,1,280,10) ">
   <g id="svg_148">
    <g id="svg_149" transform="translate(0,0) scale(0.8500000238418579,2.0999999046325684) ">
     <g id="svg_150">
      <path id="svg_151" d="m0,0l100,0q0,0 0,0l0,100q0,0 0,0l-100,0q0,0 0,0l0,-100q0,0 0,0z" fill="#cfe2f3"/>
      <g id="svg_152" transform="scale(1.1764706373214722,0.4761904776096344) ">
       <path id="svg_153" d="m0,0l85,0q0,0 0,0l0,210q0,0 0,0l-85,0q0,0 0,0l0,-210q0,0 0,0z" fill="none"/>
       <path id="svg_154" stroke-width="2" stroke-miterlimit="10" d="m0,0m0,0l85,0q0,0 0,0l0,210q0,0 0,0l-85,0q0,0 0,0l0,-210q0,0 0,0z" stroke="#333333" fill="none"/>
      </g>
     </g>
    </g>
   </g>
  </g>
  <g id="svg_155" transform="matrix(1,0,0,1,290,18) ">
   <g id="svg_156" transform="translate(-66,0) ">
    <g id="svg_157">
     <rect id="svg_158" fill-opacity="0" height="14" width="67" y="0" x="66" fill="rgb(0,0,0)"/>
    </g>
   </g>
   <g id="svg_159" transform="translate(-66,0) ">
    <g id="svg_160">
     <rect id="svg_161" fill-opacity="0" height="14" width="67" y="0" x="66" fill="rgb(0,0,0)"/>
    </g>
   </g>
   <g id="svg_162" transform="translate(-66,0) ">
    <g id="svg_163">
     <rect id="svg_164" fill-opacity="0" height="14" width="54" y="0" x="72" fill="rgb(0,0,0)"/>
    </g>
    <text id="svg_165" y="11" x="72" font-weight="normal" font-style="normal" font-size="12px" font-family="Arial" fill="rgb(0, 0, 0)">Container</text>
   </g>
   <g id="svg_166" transform="translate(-66,0) ">
    <g id="svg_167"/>
   </g>
   <g id="svg_168" transform="translate(-66,0) ">
    <g id="svg_169"/>
   </g>
  </g>
  <g id="svg_170" transform="matrix(1,0,0,1,291.5,40.00000000000003) ">
   <g id="svg_171">
    <g id="svg_172" transform="translate(0,0) scale(0.6200000047683716,0.5) ">
     <g id="svg_173">
      <g id="svg_174" transform="scale(1.6129032373428345,2) ">
       <path id="svg_175" d="m25,0l12,0c13.80712,0 25,11.19288 25,25c0,13.80712 -11.19288,25 -25,25l-12,0c-13.80712,0 -25,-11.19288 -25,-25c0,-13.80712 11.19288,-25 25,-25z" fill="#e69138"/>
       <path id="svg_176" stroke-width="2" stroke-miterlimit="10" d="m25,0m0,0l12,0c13.80712,0 25,11.19288 25,25c0,13.80712 -11.19288,25 -25,25l-12,0c-13.80712,0 -25,-11.19288 -25,-25c0,-13.80712 11.19288,-25 25,-25z" stroke="#333333" fill="none"/>
      </g>
     </g>
    </g>
   </g>
  </g>
  <g id="svg_177" transform="matrix(1,0,0,1,300,58) ">
   <g id="svg_178" transform="translate(-24,0) ">
    <g id="svg_179">
     <rect id="svg_180" fill-opacity="0" height="14" width="46" y="0" x="24" fill="rgb(0,0,0)"/>
    </g>
   </g>
   <g id="svg_181" transform="translate(-24,0) ">
    <g id="svg_182">
     <rect id="svg_183" fill-opacity="0" height="14" width="46" y="0" x="24" fill="rgb(0,0,0)"/>
    </g>
   </g>
   <g id="svg_184" transform="translate(-24,0) ">
    <g id="svg_185">
     <rect id="svg_186" fill-opacity="0" height="14" width="22" y="0" x="36" fill="rgb(0,0,0)"/>
    </g>
   </g>
   <g id="svg_187" transform="translate(-24,0) ">
    <g id="svg_188">
     <rect id="svg_189" fill-opacity="0" height="14" width="22" y="0" x="36" fill="rgb(0,0,0)"/>
    </g>
    <text id="svg_190" y="11" x="36" font-weight="normal" font-style="normal" font-size="12px" font-family="Arial" fill="rgb(0, 0, 0)">App</text>
   </g>
  </g>
  <g id="svg_191" transform="matrix(1,0,0,1,90,160) ">
   <g id="svg_192">
    <g id="svg_193" transform="translate(0,0) scale(2.5999999046325684,0.4000000059604645) ">
     <g id="svg_194">
      <g id="svg_195" transform="scale(0.38461539149284363,2.5) ">
       <path id="svg_196" d="m20,0l220,0c11.04569,0 20,8.95431 20,20c0,11.04569 -8.95431,20 -20,20l-220,0c-11.04569,0 -20,-8.95431 -20,-20c0,-11.04569 8.95431,-20 20,-20z" fill="#6aa84f"/>
       <path id="svg_197" stroke-width="2" stroke-miterlimit="10" d="m20,0m0,0l220,0c11.04569,0 20,8.95431 20,20c0,11.04569 -8.95431,20 -20,20l-220,0c-11.04569,0 -20,-8.95431 -20,-20c0,-11.04569 8.95431,-20 20,-20z" stroke="#333333" fill="none"/>
      </g>
     </g>
    </g>
   </g>
  </g>
  <g id="svg_198" transform="matrix(1,0,0,1,100,171) ">
   <g id="svg_199" transform="translate(-192,0) ">
    <g id="svg_200">
     <rect id="svg_201" fill-opacity="0" height="18" width="242" y="0" x="192" fill="rgb(0,0,0)"/>
    </g>
   </g>
   <g id="svg_202" transform="translate(-192,0) ">
    <g id="svg_203">
     <rect id="svg_204" fill-opacity="0" height="18" width="242" y="0" x="192" fill="rgb(0,0,0)"/>
    </g>
   </g>
   <g id="svg_205" transform="translate(-192,0) ">
    <g id="svg_206">
     <rect id="svg_207" fill-opacity="0" height="17" width="50" y="0" x="288" fill="rgb(0,0,0)"/>
    </g>
   </g>
   <g id="svg_208" transform="translate(-192,0) ">
    <g id="svg_209">
     <rect id="svg_210" fill-opacity="0" height="17" width="50" y="0" x="288" fill="rgb(0,0,0)"/>
    </g>
    <text id="svg_211" y="14" x="288" font-weight="bold" font-style="normal" font-size="16px" font-family="Arial" fill="rgb(0, 0, 0)">Kernel</text>
   </g>
  </g>
  <g id="svg_212" transform="matrix(1,0,0,1,90,105.00000000000003) ">
   <g id="svg_213">
    <g id="svg_214" transform="translate(0,0) scale(2.630000114440918,0.4000000059604645) ">
     <g id="svg_215">
      <g id="svg_216" transform="scale(0.3802281320095062,2.5) ">
       <path id="svg_217" d="m20,0l223,0c11.04569,0 20,8.95431 20,20c0,11.04569 -8.95431,20 -20,20l-223,0c-11.04569,0 -20,-8.95431 -20,-20c0,-11.04569 8.95431,-20 20,-20z" fill="#e06666"/>
       <path id="svg_218" stroke-width="2" stroke-miterlimit="10" d="m20,0m0,0l223,0c11.04569,0 20,8.95431 20,20c0,11.04569 -8.95431,20 -20,20l-223,0c-11.04569,0 -20,-8.95431 -20,-20c0,-11.04569 8.95431,-20 20,-20z" stroke="#333333" fill="none"/>
      </g>
     </g>
    </g>
   </g>
  </g>
  <g id="svg_219" transform="matrix(1,0,0,1,100,116) ">
   <g id="svg_220" transform="translate(-176,0) ">
    <g id="svg_221">
     <rect id="svg_222" fill-opacity="0" height="18" width="244" y="0" x="176" fill="rgb(0,0,0)"/>
    </g>
   </g>
   <g id="svg_223" transform="translate(-176,0) ">
    <g id="svg_224">
     <rect id="svg_225" fill-opacity="0" height="18" width="244" y="0" x="176" fill="rgb(0,0,0)"/>
    </g>
   </g>
   <g id="svg_226" transform="translate(-176,0) ">
    <g id="svg_227">
     <rect id="svg_228" fill-opacity="0" height="17" width="68" y="0" x="264" fill="rgb(0,0,0)"/>
    </g>
   </g>
   <g id="svg_229" transform="translate(-176,0) ">
    <g id="svg_230">
     <rect id="svg_231" fill-opacity="0" height="17" width="68" y="0" x="264" fill="rgb(0,0,0)"/>
    </g>
    <text id="svg_232" y="14" x="264" font-weight="bold" font-style="normal" font-size="16px" font-family="Arial" fill="rgb(0, 0, 0)">Libraries</text>
   </g>
  </g>
  <g id="svg_233" transform="matrix(1,0,0,1,191.5,40) ">
   <g id="svg_234">
    <g id="svg_235" transform="translate(0,0) scale(0.6200000047683716,0.5) ">
     <g id="svg_236">
      <g id="svg_237" transform="scale(1.6129032373428345,2) ">
       <path id="svg_238" d="m25,0l12,0c13.80712,0 25,11.19288 25,25c0,13.80712 -11.19288,25 -25,25l-12,0c-13.80712,0 -25,-11.19288 -25,-25c0,-13.80712 11.19288,-25 25,-25z" fill="#e69138"/>
       <path id="svg_239" stroke-width="2" stroke-miterlimit="10" d="m25,0m0,0l12,0c13.80712,0 25,11.19288 25,25c0,13.80712 -11.19288,25 -25,25l-12,0c-13.80712,0 -25,-11.19288 -25,-25c0,-13.80712 11.19288,-25 25,-25z" stroke="#333333" fill="none"/>
      </g>
     </g>
    </g>
   </g>
  </g>
  <g id="svg_240" transform="matrix(1,0,0,1,200,58) ">
   <g id="svg_241" transform="translate(-24,0) ">
    <g id="svg_242">
     <rect id="svg_243" fill-opacity="0" height="14" width="46" y="0" x="24" fill="rgb(0,0,0)"/>
    </g>
   </g>
   <g id="svg_244" transform="translate(-24,0) ">
    <g id="svg_245">
     <rect id="svg_246" fill-opacity="0" height="14" width="46" y="0" x="24" fill="rgb(0,0,0)"/>
    </g>
   </g>
   <g id="svg_247" transform="translate(-24,0) ">
    <g id="svg_248">
     <rect id="svg_249" fill-opacity="0" height="14" width="22" y="0" x="36" fill="rgb(0,0,0)"/>
    </g>
   </g>
   <g id="svg_250" transform="translate(-24,0) ">
    <g id="svg_251">
     <rect id="svg_252" fill-opacity="0" height="14" width="22" y="0" x="36" fill="rgb(0,0,0)"/>
    </g>
    <text id="svg_253" y="11" x="36" font-weight="normal" font-style="normal" font-size="12px" font-family="Arial" fill="rgb(0, 0, 0)">App</text>
   </g>
  </g>
 </g>
</svg>